<svg viewBox="0 0 482 512" fill="none" xmlns="http://www.w3.org/2000/svg">
<path d="M244.925 303.082H147.545V441.382H244.925V303.082Z" fill="#FFAF00"/>
<path d="M62.3097 0H0V441.382H146.905V306.393H274.435V220.747C274.435 220.747 268.523 156.119 213.308 145.216L193.296 144.542H121.89L62.3097 0Z" fill="black"/>
<path d="M227.22 261.884V253.057H180.005V257.47L198.63 261.884H227.22Z" fill="white"/>
<path d="M481.001 441.379H274.437V512H481.001V441.379Z" fill="black"/>
<path d="M329.431 370.979V395.905C329.431 400.621 327.702 404.551 324.245 407.695C320.788 410.951 316.603 412.523 311.599 412.523H289.309C286.307 412.523 284.852 411.175 284.852 408.368V333.477C284.852 330.67 286.307 329.322 289.309 329.322C292.312 329.322 293.767 330.67 293.767 333.477V354.249H311.599C318.513 354.249 323.699 357.056 327.065 362.558C328.612 365.14 329.431 367.947 329.431 370.979ZM311.599 362.67H293.767V404.326H311.599C314.055 404.326 316.148 403.54 317.877 401.856C319.605 400.284 320.515 398.263 320.515 395.905V370.979C320.515 368.621 319.696 366.6 317.967 365.028C316.239 363.456 314.055 362.67 311.599 362.67Z" fill="black"/>
<path d="M356.179 387.597V395.905C356.179 398.151 357.089 400.172 358.817 401.744C360.546 403.428 362.638 404.214 365.095 404.214H387.384C390.387 404.214 391.842 405.562 391.842 408.369C391.842 411.176 390.387 412.523 387.384 412.523H365.095C360.091 412.523 355.906 410.951 352.449 407.695C348.992 404.439 347.263 400.509 347.263 395.905V375.133C347.263 369.407 349.447 364.467 353.814 360.424C358.181 356.382 363.457 354.361 369.553 354.361C375.83 354.361 381.107 356.382 385.383 360.424C389.659 364.467 391.842 369.407 391.842 375.246V387.597H356.179ZM369.553 362.67C365.823 362.67 362.729 363.905 360.091 366.375C357.453 368.846 356.179 371.765 356.179 375.246V379.4H382.926V375.246C382.926 371.765 381.653 368.846 379.014 366.375C376.376 363.793 373.192 362.67 369.553 362.67Z" fill="black"/>
<path d="M414.131 354.25H454.252C459.256 354.25 463.441 355.822 466.898 359.078C470.355 362.334 472.084 366.264 472.084 370.868V408.37C472.084 411.177 470.628 412.524 467.626 412.524C464.624 412.524 463.168 411.177 463.168 408.37V370.868C463.168 368.51 462.349 366.489 460.621 364.917C458.892 363.345 456.799 362.559 454.252 362.559H445.336V408.37C445.336 411.177 443.881 412.524 440.878 412.524C437.876 412.524 436.42 411.177 436.42 408.37V362.559H418.589V408.37C418.589 411.177 417.133 412.524 414.131 412.524C411.129 412.524 409.673 411.177 409.673 408.37V358.404C409.673 355.71 411.129 354.25 414.131 354.25Z" fill="black"/>
</svg>
